<svg width="839" height="241" viewBox="0 0 839 241" fill="none" xmlns="http://www.w3.org/2000/svg">
<g clip-path="url(#clip0_5225_32769)">
<path d="M232.17 89.2808V71.5361H302.649V89.2808H278.258V152.656H256.56V89.2808H232.17Z" fill="#383838"/>
<path d="M311.25 152.656V91.8159H333.106V152.656H311.25ZM322.179 85.4787C319.222 85.4787 316.688 84.5016 314.576 82.5474C312.465 80.5932 311.409 78.2437 311.409 75.4971C311.409 72.7509 312.465 70.4007 314.576 68.4467C316.688 66.4926 319.222 65.5156 322.179 65.5156C325.161 65.5156 327.696 66.4926 329.781 68.4467C331.892 70.4007 332.949 72.7509 332.949 75.4971C332.949 78.2437 331.892 80.5932 329.781 82.5474C327.696 84.5016 325.161 85.4787 322.179 85.4787Z" fill="#383838"/>
<path d="M344.243 175.471V91.8159H365.94V102.432H366.416C367.207 100.371 368.368 98.4833 369.9 96.7674C371.431 95.0247 373.331 93.638 375.601 92.6083C377.872 91.5518 380.511 91.0244 383.521 91.0244C387.533 91.0244 391.347 92.0934 394.963 94.2323C398.606 96.3712 401.562 99.7379 403.832 104.332C406.129 108.927 407.277 114.895 407.277 122.236C407.277 129.26 406.182 135.083 403.991 139.704C401.826 144.325 398.923 147.771 395.28 150.041C391.664 152.312 387.691 153.448 383.362 153.448C380.511 153.448 377.963 152.986 375.72 152.062C373.503 151.111 371.603 149.831 370.019 148.22C368.461 146.583 367.26 144.734 366.416 142.674H366.099V175.471H344.243ZM365.624 122.236C365.624 125.194 366.006 127.755 366.772 129.921C367.564 132.059 368.672 133.723 370.098 134.911C371.549 136.073 373.279 136.654 375.285 136.654C377.291 136.654 378.994 136.086 380.392 134.951C381.818 133.789 382.9 132.139 383.639 129.999C384.405 127.834 384.787 125.247 384.787 122.236C384.787 119.226 384.405 116.651 383.639 114.512C382.9 112.347 381.818 110.696 380.392 109.561C378.994 108.4 377.291 107.819 375.285 107.819C373.279 107.819 371.549 108.4 370.098 109.561C368.672 110.696 367.564 112.347 366.772 114.512C366.006 116.651 365.624 119.226 365.624 122.236Z" fill="#383838"/>
<path d="M409.435 89.2808V71.5361H479.913V89.2808H455.524V152.656H433.825V89.2808H409.435Z" fill="#383838"/>
<path d="M508.996 153.765C502.397 153.765 496.748 152.458 492.05 149.843C487.351 147.203 483.748 143.533 481.24 138.832C478.733 134.106 477.479 128.627 477.479 122.395C477.479 116.163 478.733 110.696 481.24 105.997C483.748 101.27 487.351 97.599 492.05 94.9845C496.748 92.3441 502.397 91.0244 508.996 91.0244C515.595 91.0244 521.244 92.3441 525.943 94.9845C530.641 97.599 534.245 101.27 536.752 105.997C539.26 110.696 540.514 116.163 540.514 122.395C540.514 128.627 539.26 134.106 536.752 138.832C534.245 143.533 530.641 147.203 525.943 149.843C521.244 152.458 515.595 153.765 508.996 153.765ZM509.155 137.604C511.002 137.604 512.6 136.984 513.946 135.743C515.292 134.502 516.334 132.732 517.074 130.435C517.812 128.138 518.182 125.405 518.182 122.236C518.182 119.041 517.812 116.308 517.074 114.037C516.334 111.74 515.292 109.97 513.946 108.729C512.6 107.489 511.002 106.868 509.155 106.868C507.201 106.868 505.525 107.489 504.126 108.729C502.727 109.97 501.658 111.74 500.919 114.037C500.18 116.308 499.81 119.041 499.81 122.236C499.81 125.405 500.18 128.138 500.919 130.435C501.658 132.732 502.727 134.502 504.126 135.743C505.525 136.984 507.201 137.604 509.155 137.604Z" fill="#383838"/>
<path d="M549.383 175.471V91.8159H571.08V102.432H571.556C572.348 100.371 573.509 98.4833 575.04 96.7674C576.572 95.0247 578.472 93.638 580.742 92.6083C583.012 91.5518 585.652 91.0244 588.661 91.0244C592.673 91.0244 596.488 92.0934 600.104 94.2323C603.747 96.3712 606.703 99.7379 608.973 104.332C611.269 108.927 612.418 114.895 612.418 122.236C612.418 129.26 611.323 135.083 609.131 139.704C606.967 144.325 604.064 147.771 600.421 150.041C596.805 152.312 592.832 153.448 588.503 153.448C585.652 153.448 583.105 152.986 580.861 152.062C578.644 151.111 576.743 149.831 575.16 148.22C573.602 146.583 572.401 144.734 571.556 142.674H571.239V175.471H549.383ZM570.764 122.236C570.764 125.194 571.146 127.755 571.913 129.921C572.704 132.059 573.813 133.723 575.238 134.911C576.69 136.073 578.419 136.654 580.425 136.654C582.431 136.654 584.134 136.086 585.533 134.951C586.959 133.789 588.041 132.139 588.779 129.999C589.546 127.834 589.928 125.247 589.928 122.236C589.928 119.226 589.546 116.651 588.779 114.512C588.041 112.347 586.959 110.696 585.533 109.561C584.134 108.4 582.431 107.819 580.425 107.819C578.419 107.819 576.69 108.4 575.238 109.561C573.813 110.696 572.704 112.347 571.913 114.512C571.146 116.651 570.764 119.226 570.764 122.236Z" fill="#383838"/>
<path d="M643.47 152.656V71.5361H678.471C684.49 71.5361 689.756 72.7244 694.269 75.101C698.784 77.4775 702.295 80.818 704.802 85.1226C707.309 89.4262 708.564 94.4571 708.564 100.213C708.564 106.022 707.27 111.053 704.683 115.304C702.123 119.556 698.52 122.83 693.873 125.128C689.255 127.425 683.856 128.573 677.679 128.573H656.774V111.462H673.245C675.832 111.462 678.036 111.013 679.858 110.116C681.705 109.191 683.117 107.885 684.094 106.195C685.097 104.505 685.598 102.51 685.598 100.213C685.598 97.8899 685.097 95.9089 684.094 94.2715C683.117 92.6082 681.705 91.3411 679.858 90.4693C678.036 89.5717 675.832 89.1228 673.245 89.1228H665.484V152.656H643.47Z" fill="#383838"/>
<path d="M731.182 153.606C727.302 153.606 723.87 152.973 720.888 151.706C717.932 150.412 715.608 148.458 713.918 145.843C712.23 143.229 711.385 139.902 711.385 135.862C711.385 132.534 711.953 129.696 713.087 127.345C714.223 124.969 715.806 123.028 717.839 121.523C719.872 120.018 722.234 118.869 724.927 118.077C727.645 117.285 730.575 116.77 733.716 116.532C737.121 116.268 739.853 115.951 741.913 115.582C743.997 115.186 745.502 114.644 746.426 113.958C747.35 113.245 747.812 112.307 747.812 111.145V110.987C747.812 109.403 747.205 108.188 745.991 107.343C744.776 106.498 743.219 106.075 741.319 106.075C739.233 106.075 737.53 106.537 736.211 107.462C734.918 108.359 734.138 109.746 733.875 111.621H713.761C714.025 107.924 715.199 104.517 717.285 101.401C719.396 98.2593 722.472 95.751 726.51 93.8763C730.549 91.9747 735.59 91.0244 741.635 91.0244C745.991 91.0244 749.897 91.5393 753.355 92.569C756.813 93.572 759.756 94.9845 762.185 96.8066C764.613 98.6029 766.461 100.715 767.728 103.145C769.021 105.548 769.668 108.161 769.668 110.987V152.656H749.238V144.1H748.762C747.548 146.371 746.069 148.207 744.327 149.606C742.612 151.006 740.645 152.022 738.428 152.656C736.237 153.289 733.821 153.606 731.182 153.606ZM738.309 139.823C739.973 139.823 741.529 139.479 742.981 138.793C744.459 138.106 745.661 137.116 746.585 135.822C747.508 134.529 747.97 132.957 747.97 131.108V126.039C747.39 126.276 746.77 126.5 746.11 126.712C745.476 126.923 744.789 127.121 744.051 127.306C743.338 127.491 742.572 127.663 741.754 127.821C740.962 127.98 740.131 128.124 739.26 128.256C737.571 128.521 736.184 128.957 735.102 129.564C734.046 130.145 733.254 130.871 732.726 131.743C732.225 132.588 731.974 133.538 731.974 134.595C731.974 136.285 732.568 137.578 733.755 138.476C734.944 139.374 736.462 139.823 738.309 139.823Z" fill="#383838"/>
<path d="M791.237 175.471C788.73 175.471 786.341 175.273 784.071 174.876C781.801 174.507 779.808 173.992 778.092 173.332L782.843 157.806C784.638 158.439 786.275 158.849 787.753 159.033C789.258 159.218 790.538 159.113 791.594 158.717C792.676 158.32 793.454 157.567 793.93 156.458L794.405 155.35L773.023 91.8159H795.831L805.65 133.96H806.283L816.261 91.8159H839.226L817.053 157.726C815.944 161.079 814.334 164.09 812.223 166.757C810.137 169.45 807.392 171.576 803.987 173.134C800.581 174.692 796.332 175.471 791.237 175.471Z" fill="#383838"/>
<path d="M161.369 62.2983L89.5903 98.6278L161.369 134.601V62.2983Z" fill="#3697CD"/>
<path d="M161.369 62.2986L89.6847 98.6273L17.5329 61.5203C1.31409 53.179 -4.85704 33.1139 3.86973 17.0949C12.2973 1.62493 31.5174 -4.3022 47.1891 3.73579L161.369 62.2986Z" fill="#175892"/>
<path d="M89.6099 98.6272L24.2243 131.795C10.6823 138.665 2.14893 152.564 2.14893 167.753V204.619C2.14893 224.228 18.0397 240.125 37.642 240.125C57.2442 240.125 73.135 224.228 73.135 204.619V186.882C73.135 182.892 75.3571 179.235 78.8971 177.397L161.368 134.601L89.6099 98.6272Z" fill="#82E0FF"/>
</g>
<defs>
<clipPath id="clip0_5225_32769">
<rect width="839" height="241" fill="white"/>
</clipPath>
</defs>
</svg>
