<svg width="136" height="20" viewBox="0 0 136 20" fill="none" xmlns="http://www.w3.org/2000/svg">
<path d="M0.539062 10.2402L1.61133 10.1465C1.66211 10.5762 1.7793 10.9297 1.96289 11.207C2.15039 11.4805 2.43945 11.7031 2.83008 11.875C3.2207 12.043 3.66016 12.127 4.14844 12.127C4.58203 12.127 4.96484 12.0625 5.29688 11.9336C5.62891 11.8047 5.875 11.6289 6.03516 11.4062C6.19922 11.1797 6.28125 10.9336 6.28125 10.668C6.28125 10.3984 6.20312 10.1641 6.04688 9.96484C5.89062 9.76172 5.63281 9.5918 5.27344 9.45508C5.04297 9.36523 4.5332 9.22656 3.74414 9.03906C2.95508 8.84766 2.40234 8.66797 2.08594 8.5C1.67578 8.28516 1.36914 8.01953 1.16602 7.70312C0.966797 7.38281 0.867188 7.02539 0.867188 6.63086C0.867188 6.19727 0.990234 5.79297 1.23633 5.41797C1.48242 5.03906 1.8418 4.75195 2.31445 4.55664C2.78711 4.36133 3.3125 4.26367 3.89062 4.26367C4.52734 4.26367 5.08789 4.36719 5.57227 4.57422C6.06055 4.77734 6.43555 5.07812 6.69727 5.47656C6.95898 5.875 7.09961 6.32617 7.11914 6.83008L6.0293 6.91211C5.9707 6.36914 5.77148 5.95898 5.43164 5.68164C5.0957 5.4043 4.59766 5.26562 3.9375 5.26562C3.25 5.26562 2.74805 5.39258 2.43164 5.64648C2.11914 5.89648 1.96289 6.19922 1.96289 6.55469C1.96289 6.86328 2.07422 7.11719 2.29688 7.31641C2.51562 7.51562 3.08594 7.7207 4.00781 7.93164C4.93359 8.13867 5.56836 8.32031 5.91211 8.47656C6.41211 8.70703 6.78125 9 7.01953 9.35547C7.25781 9.70703 7.37695 10.1133 7.37695 10.5742C7.37695 11.0312 7.24609 11.4629 6.98438 11.8691C6.72266 12.2715 6.3457 12.5859 5.85352 12.8125C5.36523 13.0352 4.81445 13.1465 4.20117 13.1465C3.42383 13.1465 2.77148 13.0332 2.24414 12.8066C1.7207 12.5801 1.30859 12.2402 1.00781 11.7871C0.710938 11.3301 0.554688 10.8145 0.539062 10.2402ZM13.0547 10.9961L14.1445 11.1309C13.9727 11.7676 13.6543 12.2617 13.1895 12.6133C12.7246 12.9648 12.1309 13.1406 11.4082 13.1406C10.498 13.1406 9.77539 12.8613 9.24023 12.3027C8.70898 11.7402 8.44336 10.9531 8.44336 9.94141C8.44336 8.89453 8.71289 8.08203 9.25195 7.50391C9.79102 6.92578 10.4902 6.63672 11.3496 6.63672C12.1816 6.63672 12.8613 6.91992 13.3887 7.48633C13.916 8.05273 14.1797 8.84961 14.1797 9.87695C14.1797 9.93945 14.1777 10.0332 14.1738 10.1582H9.5332C9.57227 10.8418 9.76562 11.3652 10.1133 11.7285C10.4609 12.0918 10.8945 12.2734 11.4141 12.2734C11.8008 12.2734 12.1309 12.1719 12.4043 11.9688C12.6777 11.7656 12.8945 11.4414 13.0547 10.9961ZM9.5918 9.29102H13.0664C13.0195 8.76758 12.8867 8.375 12.668 8.11328C12.332 7.70703 11.8965 7.50391 11.3613 7.50391C10.877 7.50391 10.4688 7.66602 10.1367 7.99023C9.80859 8.31445 9.62695 8.74805 9.5918 9.29102ZM19.5352 10.7207L20.5723 10.8555C20.459 11.5703 20.168 12.1309 19.6992 12.5371C19.2344 12.9395 18.6621 13.1406 17.9824 13.1406C17.1309 13.1406 16.4453 12.8633 15.9258 12.3086C15.4102 11.75 15.1523 10.9512 15.1523 9.91211C15.1523 9.24023 15.2637 8.65234 15.4863 8.14844C15.709 7.64453 16.0469 7.26758 16.5 7.01758C16.957 6.76367 17.4531 6.63672 17.9883 6.63672C18.6641 6.63672 19.2168 6.80859 19.6465 7.15234C20.0762 7.49219 20.3516 7.97656 20.4727 8.60547L19.4473 8.76367C19.3496 8.3457 19.1758 8.03125 18.9258 7.82031C18.6797 7.60938 18.3809 7.50391 18.0293 7.50391C17.498 7.50391 17.0664 7.69531 16.7344 8.07812C16.4023 8.45703 16.2363 9.05859 16.2363 9.88281C16.2363 10.7188 16.3965 11.3262 16.7168 11.7051C17.0371 12.084 17.4551 12.2734 17.9707 12.2734C18.3848 12.2734 18.7305 12.1465 19.0078 11.8926C19.2852 11.6387 19.4609 11.248 19.5352 10.7207ZM25.5527 13V12.0859C25.0684 12.7891 24.4102 13.1406 23.5781 13.1406C23.2109 13.1406 22.8672 13.0703 22.5469 12.9297C22.2305 12.7891 21.9941 12.6133 21.8379 12.4023C21.6855 12.1875 21.5781 11.9258 21.5156 11.6172C21.4727 11.4102 21.4512 11.082 21.4512 10.6328V6.77734H22.5059V10.2285C22.5059 10.7793 22.5273 11.1504 22.5703 11.3418C22.6367 11.6191 22.7773 11.8379 22.9922 11.998C23.207 12.1543 23.4727 12.2324 23.7891 12.2324C24.1055 12.2324 24.4023 12.1523 24.6797 11.9922C24.957 11.8281 25.1523 11.6074 25.2656 11.3301C25.3828 11.0488 25.4414 10.6426 25.4414 10.1113V6.77734H26.4961V13H25.5527ZM28.1426 13V6.77734H29.0918V7.7207C29.334 7.2793 29.5566 6.98828 29.7598 6.84766C29.9668 6.70703 30.1934 6.63672 30.4395 6.63672C30.7949 6.63672 31.1562 6.75 31.5234 6.97656L31.1602 7.95508C30.9023 7.80273 30.6445 7.72656 30.3867 7.72656C30.1562 7.72656 29.9492 7.79688 29.7656 7.9375C29.582 8.07422 29.4512 8.26562 29.373 8.51172C29.2559 8.88672 29.1973 9.29688 29.1973 9.74219V13H28.1426ZM36.4102 10.9961L37.5 11.1309C37.3281 11.7676 37.0098 12.2617 36.5449 12.6133C36.0801 12.9648 35.4863 13.1406 34.7637 13.1406C33.8535 13.1406 33.1309 12.8613 32.5957 12.3027C32.0645 11.7402 31.7988 10.9531 31.7988 9.94141C31.7988 8.89453 32.0684 8.08203 32.6074 7.50391C33.1465 6.92578 33.8457 6.63672 34.7051 6.63672C35.5371 6.63672 36.2168 6.91992 36.7441 7.48633C37.2715 8.05273 37.5352 8.84961 37.5352 9.87695C37.5352 9.93945 37.5332 10.0332 37.5293 10.1582H32.8887C32.9277 10.8418 33.1211 11.3652 33.4688 11.7285C33.8164 12.0918 34.25 12.2734 34.7695 12.2734C35.1562 12.2734 35.4863 12.1719 35.7598 11.9688C36.0332 11.7656 36.25 11.4414 36.4102 10.9961ZM32.9473 9.29102H36.4219C36.375 8.76758 36.2422 8.375 36.0234 8.11328C35.6875 7.70703 35.252 7.50391 34.7168 7.50391C34.2324 7.50391 33.8242 7.66602 33.4922 7.99023C33.1641 8.31445 32.9824 8.74805 32.9473 9.29102ZM42.8672 13V12.2148C42.4727 12.832 41.8926 13.1406 41.127 13.1406C40.6309 13.1406 40.1738 13.0039 39.7559 12.7305C39.3418 12.457 39.0195 12.0762 38.7891 11.5879C38.5625 11.0957 38.4492 10.5312 38.4492 9.89453C38.4492 9.27344 38.5527 8.71094 38.7598 8.20703C38.9668 7.69922 39.2773 7.31055 39.6914 7.04102C40.1055 6.77148 40.5684 6.63672 41.0801 6.63672C41.4551 6.63672 41.7891 6.7168 42.082 6.87695C42.375 7.0332 42.6133 7.23828 42.7969 7.49219V4.41016H43.8457V13H42.8672ZM39.5332 9.89453C39.5332 10.6914 39.7012 11.2871 40.0371 11.6816C40.373 12.0762 40.7695 12.2734 41.2266 12.2734C41.6875 12.2734 42.0781 12.0859 42.3984 11.7109C42.7227 11.332 42.8848 10.7559 42.8848 9.98242C42.8848 9.13086 42.7207 8.50586 42.3926 8.10742C42.0645 7.70898 41.6602 7.50977 41.1797 7.50977C40.7109 7.50977 40.3184 7.70117 40.002 8.08398C39.6895 8.4668 39.5332 9.07031 39.5332 9.89453ZM49.8223 13H48.8438V4.41016H49.8984V7.47461C50.3438 6.91602 50.9121 6.63672 51.6035 6.63672C51.9863 6.63672 52.3477 6.71484 52.6875 6.87109C53.0312 7.02344 53.3125 7.24023 53.5312 7.52148C53.7539 7.79883 53.9277 8.13477 54.0527 8.5293C54.1777 8.92383 54.2402 9.3457 54.2402 9.79492C54.2402 10.8613 53.9766 11.6855 53.4492 12.2676C52.9219 12.8496 52.2891 13.1406 51.5508 13.1406C50.8164 13.1406 50.2402 12.834 49.8223 12.2207V13ZM49.8105 9.8418C49.8105 10.5879 49.9121 11.127 50.1152 11.459C50.4473 12.002 50.8965 12.2734 51.4629 12.2734C51.9238 12.2734 52.3223 12.0742 52.6582 11.6758C52.9941 11.2734 53.1621 10.6758 53.1621 9.88281C53.1621 9.07031 53 8.4707 52.6758 8.08398C52.3555 7.69727 51.9668 7.50391 51.5098 7.50391C51.0488 7.50391 50.6504 7.70508 50.3145 8.10742C49.9785 8.50586 49.8105 9.08398 49.8105 9.8418ZM55.4824 15.3965L55.3652 14.4062C55.5957 14.4688 55.7969 14.5 55.9688 14.5C56.2031 14.5 56.3906 14.4609 56.5312 14.3828C56.6719 14.3047 56.7871 14.1953 56.877 14.0547C56.9434 13.9492 57.0508 13.6875 57.1992 13.2695C57.2188 13.2109 57.25 13.125 57.293 13.0117L54.9316 6.77734H56.0684L57.3633 10.3809C57.5312 10.8379 57.6816 11.3184 57.8145 11.8223C57.9355 11.3379 58.0801 10.8652 58.248 10.4043L59.5781 6.77734H60.6328L58.2656 13.1055C58.0117 13.7891 57.8145 14.2598 57.6738 14.5176C57.4863 14.8652 57.2715 15.1191 57.0293 15.2793C56.7871 15.4434 56.498 15.5254 56.1621 15.5254C55.959 15.5254 55.7324 15.4824 55.4824 15.3965Z" fill="#C0C9D4"/>
<g clip-path="url(#clip0_2668_17381)">
<path d="M85.3701 7.40911V5.93652H91.2504V7.40911H89.2154V12.6685H87.4051V7.40911H85.3701Z" fill="#C0C9D4"/>
<path d="M91.9688 12.6686V7.61961H93.7923V12.6686H91.9688ZM92.8806 7.09369C92.6339 7.09369 92.4224 7.01261 92.2463 6.85044C92.0701 6.68826 91.982 6.49329 91.982 6.26535C91.982 6.03745 92.0701 5.84241 92.2463 5.68026C92.4224 5.51809 92.6339 5.43701 92.8806 5.43701C93.1294 5.43701 93.3409 5.51809 93.5148 5.68026C93.691 5.84241 93.7791 6.03745 93.7791 6.26535C93.7791 6.49329 93.691 6.68826 93.5148 6.85044C93.3409 7.01261 93.1294 7.09369 92.8806 7.09369Z" fill="#C0C9D4"/>
<path d="M94.7207 14.5619V7.61964H96.531V8.50063H96.5707C96.6367 8.32964 96.7336 8.17295 96.8614 8.03055C96.9891 7.88593 97.1477 7.77085 97.3371 7.6854C97.5265 7.59772 97.7467 7.55396 97.9978 7.55396C98.3325 7.55396 98.6507 7.64267 98.9524 7.82017C99.2564 7.99767 99.503 8.27707 99.6924 8.65836C99.884 9.03965 99.9798 9.5349 99.9798 10.1441C99.9798 10.7271 99.8884 11.2102 99.7057 11.5938C99.525 11.9773 99.2828 12.2632 98.9789 12.4516C98.6772 12.6401 98.3457 12.7344 97.9845 12.7344C97.7467 12.7344 97.5341 12.696 97.347 12.6193C97.1619 12.5404 97.0034 12.4342 96.8713 12.3005C96.7413 12.1646 96.6411 12.0112 96.5707 11.8403H96.5442V14.5619H94.7207ZM96.5046 10.1441C96.5046 10.3896 96.5365 10.6021 96.6004 10.7819C96.6664 10.9594 96.7589 11.0974 96.8779 11.196C96.999 11.2924 97.1433 11.3406 97.3106 11.3406C97.478 11.3406 97.6201 11.2935 97.7368 11.1993C97.8557 11.1029 97.946 10.9659 98.0077 10.7884C98.0715 10.6087 98.1034 10.394 98.1034 10.1441C98.1034 9.89435 98.0715 9.68063 98.0077 9.50313C97.946 9.32349 97.8557 9.18649 97.7368 9.0923C97.6201 8.99588 97.478 8.94767 97.3106 8.94767C97.1433 8.94767 96.999 8.99588 96.8779 9.0923C96.7589 9.18649 96.6664 9.32349 96.6004 9.50313C96.5365 9.68063 96.5046 9.89435 96.5046 10.1441Z" fill="#C0C9D4"/>
<path d="M100.16 7.40911V5.93652H106.04V7.40911H104.005V12.6685H102.195V7.40911H100.16Z" fill="#C0C9D4"/>
<path d="M108.467 12.7607C107.916 12.7607 107.445 12.6522 107.053 12.4352C106.661 12.2161 106.36 11.9115 106.151 11.5214C105.942 11.1292 105.837 10.6745 105.837 10.1573C105.837 9.64013 105.942 9.18649 106.151 8.79646C106.36 8.40421 106.661 8.09956 107.053 7.88259C107.445 7.66348 107.916 7.55396 108.467 7.55396C109.017 7.55396 109.488 7.66348 109.88 7.88259C110.272 8.09956 110.573 8.40421 110.782 8.79646C110.991 9.18649 111.096 9.64013 111.096 10.1573C111.096 10.6745 110.991 11.1292 110.782 11.5214C110.573 11.9115 110.272 12.2161 109.88 12.4352C109.488 12.6522 109.017 12.7607 108.467 12.7607ZM108.48 11.4195C108.634 11.4195 108.767 11.368 108.879 11.265C108.992 11.162 109.079 11.0152 109.14 10.8246C109.202 10.6339 109.233 10.4071 109.233 10.1441C109.233 9.87894 109.202 9.6522 109.14 9.46374C109.079 9.27306 108.992 9.12621 108.879 9.02321C108.767 8.92028 108.634 8.86874 108.48 8.86874C108.317 8.86874 108.177 8.92028 108.06 9.02321C107.943 9.12621 107.854 9.27306 107.793 9.46374C107.731 9.6522 107.7 9.87894 107.7 10.1441C107.7 10.4071 107.731 10.6339 107.793 10.8246C107.854 11.0152 107.943 11.162 108.06 11.265C108.177 11.368 108.317 11.4195 108.48 11.4195Z" fill="#C0C9D4"/>
<path d="M111.837 14.5619V7.61964H113.647V8.50063H113.687C113.753 8.32964 113.85 8.17295 113.978 8.03055C114.105 7.88593 114.264 7.77085 114.453 7.6854C114.643 7.59772 114.863 7.55396 115.114 7.55396C115.449 7.55396 115.767 7.64267 116.069 7.82017C116.373 7.99767 116.619 8.27707 116.809 8.65836C117 9.03965 117.096 9.5349 117.096 10.1441C117.096 10.7271 117.005 11.2102 116.822 11.5938C116.641 11.9773 116.399 12.2632 116.095 12.4516C115.793 12.6401 115.462 12.7344 115.101 12.7344C114.863 12.7344 114.65 12.696 114.463 12.6193C114.278 12.5404 114.12 12.4342 113.988 12.3005C113.858 12.1646 113.757 12.0112 113.687 11.8403H113.66V14.5619H111.837ZM113.621 10.1441C113.621 10.3896 113.653 10.6021 113.717 10.7819C113.783 10.9594 113.875 11.0974 113.994 11.196C114.115 11.2924 114.259 11.3406 114.427 11.3406C114.594 11.3406 114.736 11.2935 114.853 11.1993C114.972 11.1029 115.062 10.9659 115.124 10.7884C115.188 10.6087 115.22 10.394 115.22 10.1441C115.22 9.89435 115.188 9.68063 115.124 9.50313C115.062 9.32349 114.972 9.18649 114.853 9.0923C114.736 8.99588 114.594 8.94767 114.427 8.94767C114.259 8.94767 114.115 8.99588 113.994 9.0923C113.875 9.18649 113.783 9.32349 113.717 9.50313C113.653 9.68063 113.621 9.89435 113.621 10.1441Z" fill="#C0C9D4"/>
<path d="M119.687 12.6685V5.93652H122.607C123.109 5.93652 123.548 6.03514 123.925 6.23237C124.302 6.42959 124.594 6.70681 124.804 7.06403C125.013 7.42118 125.117 7.83868 125.117 8.31638C125.117 8.79846 125.01 9.21596 124.794 9.56874C124.58 9.9216 124.279 10.1933 123.892 10.384C123.506 10.5746 123.056 10.6699 122.541 10.6699H120.797V9.24988H122.171C122.387 9.24988 122.57 9.21263 122.722 9.13813C122.877 9.06141 122.994 8.953 123.076 8.81275C123.16 8.6725 123.201 8.50699 123.201 8.31638C123.201 8.12355 123.16 7.95916 123.076 7.82328C122.994 7.68525 122.877 7.58009 122.722 7.50774C122.57 7.43325 122.387 7.396 122.171 7.396H121.523V12.6685H119.687Z" fill="#C0C9D4"/>
<path d="M127.004 12.7475C126.681 12.7475 126.394 12.6949 126.145 12.5897C125.899 12.4824 125.705 12.3202 125.564 12.1032C125.423 11.8863 125.353 11.6102 125.353 11.2749C125.353 10.9987 125.4 10.7632 125.495 10.5681C125.589 10.3709 125.721 10.2099 125.891 10.085C126.061 9.96003 126.258 9.86473 126.482 9.79897C126.709 9.73328 126.954 9.69048 127.216 9.67079C127.5 9.64887 127.728 9.62258 127.9 9.59192C128.073 9.55904 128.199 9.51409 128.276 9.45715C128.353 9.39798 128.392 9.32015 128.392 9.22374V9.21063C128.392 9.07912 128.341 8.97833 128.24 8.90821C128.138 8.83808 128.008 8.80298 127.85 8.80298C127.676 8.80298 127.534 8.84134 127.424 8.91805C127.316 8.99255 127.251 9.10763 127.229 9.26321H125.551C125.573 8.95641 125.671 8.67368 125.845 8.4151C126.021 8.15436 126.278 7.9462 126.614 7.79062C126.951 7.63282 127.372 7.55396 127.876 7.55396C128.24 7.55396 128.566 7.59668 128.854 7.68214C129.143 7.76537 129.388 7.88259 129.591 8.03381C129.793 8.18287 129.948 8.35815 130.053 8.55979C130.161 8.75921 130.215 8.97611 130.215 9.21063V12.6686H128.511V11.9586H128.471C128.37 12.1471 128.246 12.2994 128.101 12.4155C127.958 12.5317 127.794 12.616 127.609 12.6686C127.426 12.7212 127.224 12.7475 127.004 12.7475ZM127.599 11.6036C127.738 11.6036 127.868 11.5751 127.989 11.5181C128.112 11.4611 128.212 11.379 128.289 11.2716C128.366 11.1643 128.405 11.0338 128.405 10.8804V10.4597C128.356 10.4794 128.305 10.498 128.25 10.5156C128.197 10.5331 128.14 10.5496 128.078 10.5649C128.018 10.5802 127.955 10.5945 127.886 10.6076C127.82 10.6208 127.751 10.6328 127.678 10.6437C127.537 10.6657 127.422 10.7019 127.331 10.7522C127.243 10.8004 127.177 10.8607 127.133 10.9331C127.091 11.0032 127.07 11.0821 127.07 11.1697C127.07 11.31 127.12 11.4174 127.219 11.4919C127.318 11.5664 127.445 11.6036 127.599 11.6036Z" fill="#C0C9D4"/>
<path d="M132.015 14.5619C131.806 14.5619 131.606 14.5455 131.417 14.5126C131.227 14.482 131.061 14.4392 130.918 14.3844L131.314 13.0959C131.464 13.1485 131.601 13.1825 131.724 13.1978C131.85 13.2132 131.956 13.2044 132.044 13.1716C132.135 13.1387 132.2 13.0762 132.239 12.9841L132.279 12.8922L130.495 7.61963H132.398L133.217 11.1171H133.27L134.103 7.61963H136.019L134.169 13.0894C134.076 13.3676 133.942 13.6175 133.766 13.8388C133.592 14.0623 133.363 14.2387 133.078 14.368C132.794 14.4973 132.44 14.5619 132.015 14.5619Z" fill="#C0C9D4"/>
<path d="M79.4633 5.16992L73.4746 8.18482L79.4633 11.1701V5.16992Z" fill="#E2E8EF"/>
<path d="M79.4636 5.17004L73.4828 8.18487L67.463 5.10545C66.1098 4.41323 65.5949 2.74807 66.323 1.41869C67.0262 0.134881 68.6298 -0.356997 69.9373 0.310057L79.4636 5.17004Z" fill="#C0C9D4"/>
<path d="M73.4768 8.18481L68.0215 10.9373C66.8917 11.5074 66.1797 12.6609 66.1797 13.9214V16.9808C66.1797 18.6081 67.5055 19.9274 69.141 19.9274C70.7764 19.9274 72.1022 18.6081 72.1022 16.9808V15.5089C72.1022 15.1778 72.2876 14.8742 72.583 14.7218L79.4637 11.1702L73.4768 8.18481Z" fill="#C0C9D4"/>
</g>
<defs>
<clipPath id="clip0_2668_17381">
<rect width="70" height="20" fill="white" transform="translate(66)"/>
</clipPath>
</defs>
</svg>
